{"title":"Disturbia.2007.bluray.720p.Hindi.Dubbed.DjVikas","uid":6460179,"size":2235745162,"categoryP":"video","categoryS":"hd___movies","magnet":"?xt=urn:btih:7d45d6718b3babbb67dd499c14112576113f92b2&amp;dn=Disturbia.2007.bluray.720p.Hindi.Dubbed.DjVikas&amp;tr=udp%3A%2F%2Ftracker.openbittorrent.com%3A80&amp;tr=udp%3A%2F%2Fopen.demonii.com%3A1337&amp;tr=udp%3A%2F%2Ftracker.coppersurfer.tk%3A6969&amp;tr=udp%3A%2F%2Fexodus.desync.com%3A6969","seeders":0,"leechers":1,"uploader":"djvikas","files":-1,"time":1307728863,"description":"General\nComplete name                    : Disturbia.2007.Hindi.Dubbed.720p.bluray.DjVikas.mkv\nFormat                           : Matroska\nFile size                        : 2.08 GiB\nDuration                         : 1h 40mn\nOverall bit rate                 : 2 972 Kbps\n\n\nVideo\nID                               : 1\nFormat                           : AVC\nFormat/Info                      : Advanced Video Codec\nFormat profile                   : &lt;a class=&quot;__cf_email__&quot; href=&quot;/cdn-cgi/l/email-protection&quot; data-cfemail=&quot;024a6b656a424e362c33&quot;&gt;[email&amp;#160;protected]&lt;/a&gt;&lt;script cf-hash='f9e31' type=&quot;text/javascript&quot;&gt;\n/* &lt;![CDATA[ */!function(){try{var t=&quot;currentScript&quot;in document?document.currentScript:function(){for(var t=document.getElementsByTagName(&quot;script&quot;),e=t.length;e--;)if(t[e].getAttribute(&quot;cf-hash&quot;))return t[e]}();if(t&amp;&amp;t.previousSibling){var e,r,n,i,c=t.previousSibling,a=c.getAttribute(&quot;data-cfemail&quot;);if(a){for(e=&quot;&quot;,r=parseInt(a.substr(0,2),16),n=2;a.length-n;n+=2)i=parseInt(a.substr(n,2),16)^r,e+=String.fromCharCode(i);e=document.createTextNode(e),c.parentNode.replaceChild(e,c)}}}catch(u){}}();/* ]]&gt; */&lt;/script&gt;\nFormat settings, CABAC           : Yes\nFormat settings, ReFrames        : 10 frames\nMuxing mode                      : Container profile=&lt;a class=&quot;__cf_email__&quot; href=&quot;/cdn-cgi/l/email-protection&quot; data-cfemail=&quot;d98cb7b2b7b6aeb799edf7e8&quot;&gt;[email&amp;#160;protected]&lt;/a&gt;&lt;script cf-hash='f9e31' type=&quot;text/javascript&quot;&gt;\n/* &lt;![CDATA[ */!function(){try{var t=&quot;currentScript&quot;in document?document.currentScript:function(){for(var t=document.getElementsByTagName(&quot;script&quot;),e=t.length;e--;)if(t[e].getAttribute(&quot;cf-hash&quot;))return t[e]}();if(t&amp;&amp;t.previousSibling){var e,r,n,i,c=t.previousSibling,a=c.getAttribute(&quot;data-cfemail&quot;);if(a){for(e=&quot;&quot;,r=parseInt(a.substr(0,2),16),n=2;a.length-n;n+=2)i=parseInt(a.substr(n,2),16)^r,e+=String.fromCharCode(i);e=document.createTextNode(e),c.parentNode.replaceChild(e,c)}}}catch(u){}}();/* ]]&gt; */&lt;/script&gt;\nCodec ID                         : V_MPEG4/ISO/AVC\nDuration                         : 1h 40mn\nBit rate                         : 2 601 Kbps\nWidth                            : 1 280 pixels\nHeight                           : 720 pixels\nDisplay aspect ratio             : 16:9\nFrame rate                       : 25.000 fps\nOriginal frame rate              : 23.976 fps\nColor space                      : YUV\nChroma subsampling               : 4:2:0\nBit depth                        : 8 bits\nScan type                        : Progressive\nBits/(Pixel*Frame)               : 0.113\nStream size                      : 1.86 GiB (89%)\nWriting library                  : x264 core 67 r1128M 682b54d\n\n\nAudio\nID                               : 2\nFormat                           : AC-3\nFormat/Info                      : Audio Coding 3\nMode extension                   : CM (complete main)\nCodec ID                         : A_AC3\nDuration                         : 1h 40mn\nBit rate mode                    : Constant\nBit rate                         : 256 Kbps\nChannel(s)                       : 2 channels\nChannel positions                : Front: L R\nSampling rate                    : 48.0 KHz\nBit depth                        : 16 bits\nStream size                      : 184 MiB (9%)\nTitle                            : Hindi-DjVikas\n\n================================================================\n\n\n\n\n\n\n\n\n\n\n\n","torrent":{"xt":"urn:btih:7d45d6718b3babbb67dd499c14112576113f92b2","amp;dn":"Disturbia.2007.bluray.720p.Hindi.Dubbed.DjVikas","amp;tr":["udp%3A%2F%2Ftracker.openbittorrent.com%3A80","udp%3A%2F%2Fopen.demonii.com%3A1337","udp%3A%2F%2Ftracker.coppersurfer.tk%3A6969","udp%3A%2F%2Fexodus.desync.com%3A6969"],"infoHash":"7d45d6718b3babbb67dd499c14112576113f92b2","infoHashBuffer":{"type":"Buffer","data":[125,69,214,113,139,59,171,187,103,221,73,156,20,17,37,118,17,63,146,178]},"announce":[],"urlList":[]}}